<svg version="1.1" id="Layer_1" xmlns="http://www.w3.org/2000/svg" xmlns:xlink="http://www.w3.org/1999/xlink" x="0px" y="0px"
	 width="100%" viewBox="0 0 1024 880" enable-background="new 0 0 1024 880" xml:space="preserve">
<path fill="#000000" opacity="1.000000" stroke="none" 
	d="
M411.000061,416.675964 
	C434.828156,416.675385 458.157715,416.535583 481.483093,416.784760 
	C486.543182,416.838806 488.087067,415.302002 488.067200,410.287750 
	C487.914124,371.630493 487.995667,332.972290 488.005798,294.314392 
	C488.006226,292.648193 488.101532,290.977539 488.010986,289.316681 
	C487.777344,285.031952 489.680481,283.544769 493.991699,283.625519 
	C506.317902,283.856445 518.655151,283.885834 530.979858,283.616699 
	C535.815491,283.511078 537.281433,285.198212 537.263062,289.955292 
	C537.110718,329.445770 537.167053,368.937042 537.162537,408.428070 
	C537.161560,416.673126 537.165649,416.677551 545.177551,416.677917 
	C581.002808,416.679626 616.828064,416.675079 652.653320,416.681763 
	C659.301758,416.682983 659.324158,416.702057 659.332825,423.203094 
	C659.349304,435.674591 659.337646,448.146179 659.337646,460.291412 
	C657.057373,461.958649 654.989441,461.395142 653.048645,461.396667 
	C616.723511,461.424744 580.398376,461.408569 544.073242,461.409851 
	C537.208313,461.410095 537.197021,461.426208 537.196228,468.421539 
	C537.192078,508.079254 537.196960,547.736938 537.190674,587.394653 
	C537.189453,595.039001 537.111023,595.118286 529.310730,595.126099 
	C517.813354,595.137573 506.315887,595.139893 494.818573,595.105713 
	C488.416931,595.086670 488.052887,594.740295 488.049072,588.276367 
	C488.025696,548.618652 488.025909,508.960999 488.029480,469.303314 
	C488.030151,461.715790 487.805664,461.429108 480.162781,461.425415 
	C444.337555,461.408142 408.512299,461.419434 372.687073,461.406342 
	C365.857422,461.403839 365.841217,461.374420 365.833191,454.387787 
	C365.820953,443.723541 365.981628,433.056244 365.763672,422.396484 
	C365.675476,418.082214 367.101257,416.519440 371.512299,416.596039 
	C384.504761,416.821869 397.503662,416.676392 411.000061,416.675964 
z"/>
<path fill="#000000" opacity="1.000000" stroke="none" 
	d="
M260.893250,783.564026 
	C260.850128,747.445312 260.848969,711.783936 260.843658,676.122559 
	C260.842621,669.056030 260.835327,669.047485 253.560211,669.049438 
	C221.898148,669.057922 190.236099,669.075562 158.574036,669.080627 
	C151.671341,669.081787 151.660858,669.064331 151.652390,662.152710 
	C151.642380,653.987244 151.736572,645.820435 151.612198,637.656921 
	C151.564117,634.500977 152.516541,633.283142 155.920868,633.343933 
	C188.906525,633.933838 221.891724,633.406555 254.877777,633.187073 
	C259.441162,633.156738 260.930328,631.732117 260.911560,627.147461 
	C260.766876,591.819763 260.834930,556.491333 260.842072,521.163086 
	C260.843597,513.673096 260.853973,513.734314 268.130798,513.635559 
	C277.622040,513.506775 287.111053,513.193909 296.602386,513.104919 
	C302.674591,513.048035 303.024445,513.519897 303.023254,519.696594 
	C303.016357,555.024719 303.001038,590.352783 303.003754,625.680908 
	C303.004303,632.850159 303.032715,632.897095 310.090057,633.124512 
	C342.075409,634.155518 374.070312,633.471619 406.059326,633.425781 
	C411.358032,633.418152 412.609955,635.022705 412.379486,639.915649 
	C412.019226,647.564514 412.017639,655.253723 412.358246,662.903809 
	C412.577179,667.821228 410.693665,669.174377 406.002136,669.151917 
	C374.174103,668.999756 342.345062,669.061829 310.516327,669.073059 
	C302.998291,669.075684 303.016632,669.107971 303.018921,676.463257 
	C303.029785,710.958191 303.033600,745.453064 303.030212,779.947998 
	C303.029541,786.611572 302.693268,786.943726 295.943085,786.953613 
	C286.111206,786.968018 276.279083,786.983948 266.447540,786.923157 
	C264.186951,786.909241 261.559326,787.280884 260.893250,783.564026 
z"/>
<path fill="#000000" opacity="1.000000" stroke="none" 
	d="
M722.588318,774.788086 
	C722.600281,741.812439 722.612061,709.313354 722.616089,676.814270 
	C722.617065,669.004456 722.605225,669.026245 715.048828,669.030396 
	C682.716431,669.048096 650.383972,669.056030 618.051575,669.057556 
	C610.731934,669.057861 610.724854,669.039490 610.709961,661.967773 
	C610.694214,654.467957 610.929626,646.957764 610.599487,639.472229 
	C610.395508,634.847412 612.013672,633.499084 616.578003,633.521729 
	C648.576294,633.680359 680.575684,633.596008 712.574768,633.586121 
	C724.858826,633.582336 722.552002,633.078674 722.573364,623.550415 
	C722.651428,588.718201 722.706726,553.884888 722.453308,519.054260 
	C722.415039,513.792603 724.095154,512.538147 729.002991,512.727478 
	C738.155823,513.080688 747.331970,512.817871 756.498291,512.839783 
	C763.162598,512.855713 763.248108,512.919373 763.251038,519.501282 
	C763.266785,555.166931 763.257751,590.832581 763.263550,626.498230 
	C763.264648,633.118713 763.282654,632.953369 770.089966,633.149658 
	C802.914673,634.096008 835.744385,633.406982 868.571167,633.467102 
	C872.362000,633.474060 873.518921,634.626465 873.411011,638.310425 
	C873.191528,645.803772 873.351379,653.308044 873.346741,660.807861 
	C873.341675,669.058411 873.337708,669.072205 865.294861,669.073853 
	C833.962402,669.080322 802.629944,669.075928 771.297485,669.078430 
	C763.252136,669.079102 763.247803,669.083923 763.248230,677.316772 
	C763.250000,711.815796 763.255005,746.314819 763.257935,780.813843 
	C763.258545,788.162354 763.256897,788.172791 755.681335,788.171875 
	C746.348267,788.170776 737.010559,787.971252 727.684143,788.214539 
	C723.135071,788.333191 721.691956,786.433960 722.153687,782.244263 
	C722.408752,779.929932 722.448486,777.591980 722.588318,774.788086 
z"/>
<path fill="#000000" opacity="1.000000" stroke="none" 
	d="
M732.041382,86.703033 
	C740.201233,86.702431 747.865601,86.689941 755.530029,86.706543 
	C762.214844,86.721031 762.257202,86.735512 762.259766,93.315117 
	C762.273682,128.638062 762.266357,163.961014 762.262268,199.283951 
	C762.261414,206.741943 762.253601,206.754745 769.497559,206.754440 
	C801.321533,206.753082 833.146240,206.849228 864.968750,206.629578 
	C870.057007,206.594467 871.677734,208.107162 871.435852,213.153427 
	C871.053223,221.132919 871.160767,229.148743 871.394104,237.139465 
	C871.510071,241.110687 870.020508,242.373734 866.169739,242.332199 
	C853.508606,242.195541 840.843567,242.225266 828.181885,242.361023 
	C808.361084,242.573517 788.542297,243.044525 768.721497,243.126862 
	C764.186279,243.145706 763.183044,244.887909 763.159668,249.061020 
	C762.965637,283.710632 761.907715,318.352325 762.221191,353.008026 
	C762.285950,360.163452 762.192810,360.187042 754.962036,360.202576 
	C745.798157,360.222260 736.632263,360.092163 727.471069,360.248352 
	C723.680115,360.312988 722.284424,359.193695 722.311401,355.089417 
	C722.544250,319.603424 722.506592,284.115753 722.648438,248.628998 
	C722.668030,243.741959 720.802917,242.100327 715.789917,242.132446 
	C683.634033,242.338333 651.476135,242.241318 619.318909,242.229706 
	C612.955994,242.227402 612.805725,242.070602 612.790588,235.869766 
	C612.771423,228.038788 612.976990,220.201248 612.711792,212.379211 
	C612.561768,207.955048 614.231079,206.656754 618.538513,206.675842 
	C650.861755,206.819153 683.185852,206.766678 715.509705,206.762604 
	C722.590637,206.761703 722.610657,206.737900 722.613953,199.493393 
	C722.629761,164.836914 722.619812,130.180420 722.651001,95.523972 
	C722.659790,85.806465 721.739563,86.770317 732.041382,86.703033 
z"/>
<path fill="#000000" opacity="1.000000" stroke="none" 
	d="
M396.994965,242.233459 
	C366.674347,242.233215 336.852936,242.227127 307.031555,242.237930 
	C300.380829,242.240326 300.367432,242.267639 300.365173,248.918533 
	C300.353394,283.737915 300.354584,318.557281 300.337097,353.376678 
	C300.333710,360.154327 300.304871,360.176575 293.342926,360.198120 
	C285.346222,360.222870 277.349304,360.226227 269.352631,360.195190 
	C263.070282,360.170837 262.862610,359.946350 262.862640,353.747955 
	C262.862976,318.928589 262.872314,284.109192 262.871399,249.289825 
	C262.871216,242.252197 262.856964,242.245544 255.636322,242.244537 
	C223.482544,242.240112 191.328262,242.151596 159.175507,242.332291 
	C154.303192,242.359665 152.270493,241.204758 152.558655,235.952026 
	C152.977814,228.311447 152.928055,220.618546 152.572144,212.971512 
	C152.341995,208.026764 154.250854,206.756622 158.925430,206.779770 
	C191.078430,206.939087 223.232574,206.868378 255.386353,206.870621 
	C262.835144,206.871140 262.861938,206.869247 262.864349,199.541840 
	C262.875580,165.055664 262.863770,130.569489 262.877563,96.083313 
	C262.880493,88.723755 262.913910,88.712685 270.431641,88.708435 
	C278.261810,88.704010 286.104065,88.990479 293.917816,88.636879 
	C298.896088,88.411606 300.488525,89.926239 300.455933,95.070389 
	C300.238312,129.388580 300.326324,163.708847 300.356842,198.028397 
	C300.365265,207.508835 299.286682,206.754868 309.348297,206.760849 
	C341.335480,206.779861 373.322693,206.761230 405.309875,206.764938 
	C412.236389,206.765732 412.260101,206.780609 412.277405,213.657883 
	C412.296692,221.321396 412.060120,228.992538 412.337738,236.645752 
	C412.500183,241.123657 410.755127,242.643738 406.485382,242.288422 
	C403.507416,242.040634 400.492584,242.236191 396.994965,242.233459 
z"/>
<path fill="#000000" opacity="1.000000" stroke="none" 
	d="
M472.999817,795.325439 
	C457.506836,795.324707 442.512360,795.207458 427.521790,795.398132 
	C423.262695,795.452393 421.467773,794.198669 421.660522,789.726929 
	C421.940094,783.242371 421.996338,776.720093 421.620239,770.244568 
	C421.348602,765.567871 423.213470,764.040710 427.604614,764.073120 
	C441.263977,764.174011 454.924683,764.093323 468.584869,764.084839 
	C475.248413,764.080688 481.950378,763.639526 488.563538,764.215698 
	C493.991180,764.688660 494.852936,762.584412 494.800781,757.791626 
	C494.570587,736.637268 494.698303,715.479065 494.690338,694.322266 
	C494.685974,682.699219 494.680542,682.698303 506.325500,682.694275 
	C511.989532,682.692261 517.653564,682.687317 523.317566,682.696289 
	C530.279053,682.707336 530.301880,682.713013 530.305298,689.481567 
	C530.316895,712.304260 530.440796,735.128296 530.207886,757.948608 
	C530.157715,762.857422 531.818726,764.207092 536.512817,764.161499 
	C556.668213,763.965820 576.826599,764.054504 596.983826,764.089355 
	C604.239746,764.101868 604.306030,764.219482 604.316162,771.231506 
	C604.325317,777.561890 604.132568,783.898560 604.362732,790.220276 
	C604.508057,794.209412 602.890137,795.402649 599.078064,795.380554 
	C578.588318,795.261841 558.095215,795.491943 537.608643,795.210571 
	C532.446228,795.139709 531.229797,796.779724 531.215759,801.751770 
	C531.148132,825.732971 530.578369,849.712402 530.417908,873.693970 
	C530.389526,877.932495 528.794434,879.247437 524.825684,879.165222 
	C516.666077,878.996033 508.495422,878.904297 500.340424,879.149475 
	C495.918671,879.282471 494.593903,877.594849 494.621185,873.304565 
	C494.772614,849.483337 494.703827,825.660645 494.690155,801.838440 
	C494.686432,795.359680 494.654266,795.354492 487.993591,795.337463 
	C483.162354,795.325134 478.331024,795.329102 472.999817,795.325439 
z"/>
<path fill="#000000" opacity="1.000000" stroke="none" 
	d="
M882.299072,393.000000 
	C882.300415,403.140289 882.300415,412.780609 882.300415,421.884125 
	C883.253418,423.175598 884.063843,423.273682 884.915710,423.247253 
	C907.221252,422.554840 929.529968,424.413208 951.833923,423.168427 
	C955.385803,422.970215 957.503662,423.920227 957.373352,428.125641 
	C957.146606,435.447662 957.190735,442.784119 957.352051,450.109436 
	C957.429871,453.642609 955.981750,454.674408 952.589966,454.671234 
	C931.109985,454.651276 909.629456,454.891998 888.150024,454.809113 
	C883.577026,454.791473 882.162842,456.323364 882.201782,460.899536 
	C882.403137,484.550446 882.160339,508.205383 882.408386,531.855408 
	C882.462341,537.002014 880.776611,538.537170 875.806702,538.307800 
	C868.160828,537.955078 860.484863,538.114624 852.825500,538.260010 
	C849.393250,538.325195 848.053406,536.972656 848.067261,533.567017 
	C848.163452,509.925934 848.105591,486.284149 848.239014,462.643402 
	C848.281067,455.179047 847.595947,454.132904 840.111633,454.449066 
	C819.797302,455.307312 799.487549,453.835358 779.180603,454.461945 
	C775.079956,454.588501 773.503174,453.145477 773.641785,448.998932 
	C773.869690,442.177399 773.892029,435.334656 773.618774,428.516174 
	C773.456970,424.478668 775.004578,423.478851 778.839539,423.481140 
	C799.652344,423.493439 820.465271,423.254669 841.278198,423.101715 
	C847.828186,423.053589 848.063049,422.870453 848.091980,416.392487 
	C848.195374,393.249725 848.254456,370.106750 848.359192,346.963989 
	C848.366699,345.323639 848.607300,343.684326 848.761475,341.771149 
	C858.901550,340.932587 868.839539,340.995697 878.780579,341.214539 
	C882.459412,341.295532 882.306580,343.935333 882.303589,346.527863 
	C882.285706,361.851898 882.296570,377.175964 882.299072,393.000000 
z"/>
<path fill="#000000" opacity="1.000000" stroke="none" 
	d="
M589.907593,107.213928 
	C570.593262,107.216591 551.764893,107.211472 532.936584,107.225800 
	C526.200867,107.230919 526.187866,107.252350 526.185547,114.204391 
	C526.177979,136.865005 526.190369,159.525635 526.173584,182.186249 
	C526.168823,188.595139 525.856812,188.882874 519.358154,188.906006 
	C514.859436,188.922028 510.360474,188.909271 505.861786,188.884125 
	C499.281586,188.847351 499.014160,188.595490 499.009186,182.225143 
	C498.991577,159.564499 498.984467,136.903854 498.980133,114.243210 
	C498.978790,107.220894 498.988617,107.208168 492.159271,107.206314 
	C472.331177,107.200928 452.503113,107.218063 432.675018,107.201523 
	C426.338135,107.196236 426.110321,106.960304 426.067108,100.840515 
	C426.040070,97.008659 426.123596,93.175850 426.081085,89.344315 
	C426.045197,86.114410 427.309540,84.636559 430.790192,84.458504 
	C445.448242,83.708687 460.108459,84.342583 474.764984,84.127907 
	C480.928772,84.037613 487.103424,83.902046 493.256958,84.165680 
	C497.646484,84.353737 499.074280,82.654114 499.045288,78.346817 
	C498.895294,56.020382 498.962433,33.692471 498.961548,11.365069 
	C498.961243,2.921664 498.970581,2.919940 507.162292,2.931108 
	C511.494476,2.937015 515.837830,3.148476 520.155762,2.905620 
	C524.700073,2.650034 526.292114,4.445367 526.261047,9.006636 
	C526.104431,31.999435 526.181091,54.993931 526.220459,77.987755 
	C526.223816,79.939224 525.744080,81.986771 527.297119,84.583641 
	C532.672791,84.583641 538.462463,84.598404 544.252014,84.580841 
	C560.912476,84.530304 577.573853,84.542488 594.232666,84.345573 
	C597.643372,84.305252 599.240356,85.374130 599.134338,88.851601 
	C599.037964,92.014709 599.094055,95.182564 599.088989,98.348343 
	C599.074707,107.202278 599.075867,107.202278 589.907593,107.213928 
z"/>
<path fill="#000000" opacity="1.000000" stroke="none" 
	d="
M166.891541,524.811462 
	C167.462357,530.249695 165.216705,532.215759 160.271225,531.924561 
	C155.620468,531.650818 150.941772,531.734436 146.278534,531.824646 
	C142.037888,531.906616 140.597580,530.123962 140.634140,525.791687 
	C140.825363,503.130463 140.723953,480.466766 140.719116,457.803955 
	C140.717529,450.364777 140.710464,450.356506 133.498795,450.356781 
	C113.835457,450.357513 94.172112,450.375824 74.508781,450.365814 
	C67.701881,450.362335 67.697411,450.333618 67.675186,443.346283 
	C67.664589,440.013550 67.663109,436.680664 67.677986,433.347961 
	C67.707932,426.643799 67.713715,426.620636 74.240936,426.616516 
	C94.070908,426.603973 113.900887,426.616364 133.730865,426.607483 
	C140.695358,426.604370 140.712036,426.589081 140.715088,419.807983 
	C140.724991,397.811707 140.723007,375.815430 140.722458,353.819153 
	C140.722275,345.996918 140.718155,345.994324 148.781860,345.963501 
	C151.781326,345.952057 154.780853,345.949371 157.780334,345.954132 
	C165.343033,345.966187 165.351944,345.968811 165.352631,353.300140 
	C165.354706,375.463043 165.350159,397.625977 165.346115,419.788879 
	C165.344879,426.580292 165.342010,426.634583 172.280396,426.615387 
	C193.440781,426.556854 214.601562,426.507538 235.760864,426.312286 
	C239.305969,426.279572 241.105682,427.339966 241.003204,431.092987 
	C240.885010,435.422363 240.812820,439.764740 241.012619,444.087921 
	C241.225769,448.699066 239.607071,450.523285 234.674911,450.463470 
	C214.347977,450.216858 194.016373,450.351562 173.686478,450.354401 
	C166.448441,450.355408 166.389236,450.366577 166.433319,457.385590 
	C166.573471,479.709351 165.954086,502.038483 166.891541,524.811462 
z"/>
</svg>